<?xml version="1.0" standalone="no"?>
<!DOCTYPE svg PUBLIC "-//W3C//DTD SVG 20010904//EN"
 "http://www.w3.org/TR/2001/REC-SVG-20010904/DTD/svg10.dtd">
<svg version="1.0" xmlns="http://www.w3.org/2000/svg"
 width="120px" height="120px" viewBox="0 0 200.000000 200.000000"
 preserveAspectRatio="xMidYMid meet">

<g transform="translate(0.000000,200.000000) scale(0.100000,-0.100000)"
fill="#000000" stroke="none">
<path style="fill:#fff;" d="M693 1635 c-38 -16 -39 -22 -17 -73 21 -52 60 -90 119 -118 61 -29
96 -31 40 -2 -80 41 -153 134 -127 160 5 5 39 12 74 15 87 6 123 -14 166 -96
36 -70 39 -68 17 5 -14 49 -48 90 -92 113 -30 15 -141 13 -180 -4z"/>
<path style="fill:#fff;" d="M862 1504 c81 -85 100 -137 111 -299 12 -197 15 -205 38 -115 40 160
86 245 153 285 43 26 38 33 -11 14 -42 -15 -93 -68 -118 -121 l-22 -48 -6 53
c-4 29 -14 74 -23 100 -18 53 -85 132 -135 161 -32 18 -32 16 13 -30z"/>
<path style="fill:#fff;" d="M1184 1488 c-40 -8 -104 -58 -104 -81 0 -6 13 2 30 18 24 23 41 30
90 33 76 6 110 -3 110 -27 0 -39 -57 -88 -130 -112 -18 -7 -12 -8 24 -5 54 4
90 26 124 76 43 65 27 91 -63 102 -22 2 -58 1 -81 -4z"/>
<path style="fill:#fff;" d="M900 864 c0 -9 5 -14 12 -12 18 6 21 28 4 28 -9 0 -16 -7 -16 -16z"/>
<path style="fill:rgba(184, 114, 213, 1);" d="M1075 858 c-29 -128 -28 -138 6 -138 21 0 25 10 8 27 -7 7 -6 28 4
72 12 51 12 61 1 61 -8 0 -16 -10 -19 -22z"/>
<path style="fill:rgba(184, 114, 213, 1);" d="M1220 857 c0 -31 -10 -40 -27 -25 -20 16 -61 -5 -69 -36 -13 -53 18
-92 55 -69 15 9 21 9 23 1 9 -25 26 4 32 54 3 29 9 63 12 76 5 16 2 22 -10 22
-10 0 -16 -9 -16 -23z m-18 -72 c-8 -48 -52 -57 -52 -11 0 29 9 38 35 34 14
-2 19 -9 17 -23z"/>
<path style="fill:rgba(184, 114, 213, 1);" d="M770 823 c1 -10 5 -37 9 -61 7 -37 6 -46 -12 -63 -24 -22 -17 -35 10
-21 20 11 93 128 93 149 0 28 -20 11 -41 -34 l-23 -48 -5 44 c-6 43 -31 72
-31 34z"/>
<path style="fill:rgba(184, 114, 213, 1);" d="M897 833 c-3 -5 -8 -24 -12 -43 -3 -19 -9 -43 -11 -52 -3 -11 0 -18
9 -18 11 0 37 76 37 111 0 11 -17 12 -23 2z"/>
<path style="fill:rgba(184, 114, 213, 1);" d="M955 816 c-57 -57 -3 -130 61 -81 18 14 17 15 -15 12 -20 -1 -36 3
-38 11 -3 7 4 12 19 12 13 0 33 6 44 14 15 12 17 18 8 33 -17 28 -50 27 -79
-1z m58 -11 c1 -5 -11 -12 -27 -13 -27 -3 -28 -2 -16 13 14 17 40 17 43 0z"/>
</g>
</svg>
